<?xml version="1.0" ?><svg height="512px" id="Layer_1" style="enable-background:new 0 0 512 512;" version="1.1" viewBox="0 0 512 512" width="512px" xml:space="preserve" xmlns="http://www.w3.org/2000/svg" xmlns:cc="http://creativecommons.org/ns#" xmlns:dc="http://purl.org/dc/elements/1.1/" xmlns:inkscape="http://www.inkscape.org/namespaces/inkscape" xmlns:rdf="http://www.w3.org/1999/02/22-rdf-syntax-ns#" xmlns:sodipodi="http://sodipodi.sourceforge.net/DTD/sodipodi-0.dtd" xmlns:svg="http://www.w3.org/2000/svg"><defs id="defs19"/><g id="g3021"/><g id="Layer_1_1_"/><g id="Layer_1_1_-7" transform="translate(-819.672,-61.929991)"/><g id="g2989"><rect height="512" id="rect2989" rx="70" ry="70" style="fill:#ff5100;fill-opacity:1;stroke:none" transform="scale(-1,-1)" width="512" x="-512" y="-512"/><path d="m 58.924057,277.42038 -2.924217,25.57951 2.924217,25.14056 c 0.108571,1.05786 0.769567,1.79627 1.604705,1.79627 0.808567,0 1.467179,-0.73128 1.595309,-1.78547 l 3.467192,-25.15136 -3.467192,-25.58671 c -0.122855,-1.05414 -0.790572,-1.79717 -1.595309,-1.79717 -0.834436,0 -1.496889,0.743 -1.604705,1.80437 z m 23.50866,-15.78234 c 0,0.009 -3.932816,41.35825 -3.932816,41.35825 l 3.932816,40.44347 c 0.11143,1.08486 0.812428,1.86733 1.664849,1.86733 0.836,0 1.521884,-0.76457 1.659374,-1.85562 l 4.47345,-40.45518 -4.46796,-41.35825 c -0.13715,-1.09914 -0.821862,-1.85833 -1.664864,-1.85833 -0.847717,0 -1.549223,0.78429 -1.664849,1.85833 z m 22.093813,-9.04161 -3.52579,50.41606 3.52579,48.77808 c 0.0943,1.51022 1.11015,2.65077 2.34922,2.65077 1.225,0 2.23673,-1.14229 2.34532,-2.65077 l 4.01017,-48.77808 -4.01017,-50.42686 c -0.10712,-1.51113 -1.11872,-2.65168 -2.34532,-2.65168 -1.239,0 -2.24921,1.14143 -2.34922,2.66247 z m 22.30006,3.6501 -3.32423,46.76685 3.32423,49.18016 c 0.0957,1.73511 1.24373,3.04744 2.68907,3.04744 1.42429,0 2.57657,-1.31328 2.6836,-3.04294 l 3.77736,-49.18466 -3.77736,-46.78843 c -0.10141,-1.72792 -1.25543,-3.03036 -2.6836,-3.03036 -1.44609,0 -2.59845,1.31328 -2.68907,3.05194 z m 22.30944,-29.30518 -3.13361,76.09093 3.13361,49.17565 c 0.0814,1.9222 1.61563,3.43693 3.2297,3.43693 1.60547,0 3.23595,-1.52193 3.23595,-3.44862 l 3.3336,-49.16396 -3.64376,-76.09094 c -0.0971,-1.93208 -1.52736,-3.45402 -3.13284,-3.45402 -1.61249,0 -2.94609,1.52104 -3.02265,3.45402 z m 22.29146,-17.39061 c 0,0.006 -2.92344,93.49682 -2.92344,93.49682 l 2.9297,48.86534 c 0.0728,2.13537 1.55312,3.8255 3.36797,3.8255 1.79845,0 3.28205,-1.69013 3.36798,-3.84349 l 3.3047,-48.84735 -3.3047,-93.49682 c -0.09,-2.15786 -1.57032,-3.84259 -3.36875,-3.84259 -1.81408,0 -3.29376,1.68833 -3.37346,3.84259 z m 22.09694,-11.20756 -2.52031,104.71427 2.52344,48.06482 c 0.0615,2.5761 2.22969,4.61255 4.43595,4.61255 2.20234,0 4.43829,-2.03645 4.43829,-4.62784 l 2.44844,-48.0468 -3.03047,-104.7179 c -0.07,-2.5986 -2.04532,-4.63953 -4.24299,-4.63953 -2.21094,0 -3.99218,2.03463 -4.05235,4.64044 z m 22.0985,6.41962 -2.11641,98.31535 2.11641,47.30924 c 0.0515,3.01236 2.18673,5.39421 4.79298,5.39421 2.59845,0 4.78517,-2.37826 4.78517,-5.42659 l 2.32189,-47.27147 -2.40079,-98.32794 c -0.0629,-3.04385 -2.16095,-5.42747 -4.75939,-5.42747 -2.60234,0 -4.68908,2.38273 -4.73986,5.43467 z m 22.60318,-29.2665 -2.21875,127.60703 2.22501,46.30902 c 0.0386,3.38655 2.73126,6.17223 5.68517,6.17223 2.94767,0 5.68439,-2.78749 5.68439,-6.22261 l 2.1461,-46.25864 -2.54845,-127.61693 c -0.0428,-3.42163 -2.60156,-6.21362 -5.54923,-6.21362 -2.95468,0 -5.3797,2.79199 -5.42424,6.22352 z m 149.54027,71.60068 C 383.85073,196.04501 346.66705,156 301.31146,156 c -11.09926,0 -21.86726,2.51405 -31.42119,6.7695 -3.71251,1.65326 -4.68752,3.35778 -4.68752,6.65888 l 0,179.78337 c 0,3.46661 2.32579,6.35485 5.26252,6.69396 0.12428,0.0157 135.47225,0.0943 136.3496,0.0943 27.16961,0 49.18529,-25.36363 49.18529,-56.64857 0,-31.28494 -22.03678,-56.65307 -49.20483,-56.65307 -6.73986,0 -13.17269,1.57049 -19.02895,4.39847 z" id="Oval-1" style="fill:#ffffff"/></g></svg>